PathFileType	4	(X/Y/Z)	Patient4_TMGait_0pt4_03_left_31.trc.trc
DataRate	CameraRate	NumFrames	NumMarkers	Units	OrigDataRate	OrigDataStartFrame	OrigNumFrames
73.298429319372	73.298429319372	6	33	mm	73.298429319372	124	       141
Frame#	Time	Sacral			L.Shoulder			Chest			R.Shoulder			Neck			R.ASIS			L.ASIS			R.Thigh.Superior			R.Thigh.Lateral			R.Thigh.Inferior			R.Patella			L.Thigh.Superior			L.Thigh.Lateral			L.Thigh.Inferior			L.Patella			L.Shank.Superior			L.Shank.Lateral			L.Shank.Inferior			R.Shank.Superior			R.Shank.Lateral			R.Shank.Inferior			R.Heel			R.Midfoot.Superior			R.Midfoot.Lateral			R.Toe			L.Heel			L.Midfoot.Lateral			L.Midfoot.Superior			L.Toe			L.Elbow			L.Wrist			R.Elbow			R.Wrist			
		X1	Y1	Z1	X2	Y2	Z2	X3	Y3	Z3	X4	Y4	Z4	X5	Y5	Z5	X6	Y6	Z6	X7	Y7	Z7	X8	Y8	Z8	X9	Y9	Z9	X10	Y10	Z10	X11	Y11	Z11	X12	Y12	Z12	X13	Y13	Z13	X14	Y14	Z14	X15	Y15	Z15	X16	Y16	Z16	X17	Y17	Z17	X18	Y18	Z18	X19	Y19	Z19	X20	Y20	Z20	X21	Y21	Z21	X22	Y22	Z22	X23	Y23	Z23	X24	Y24	Z24	X25	Y25	Z25	X26	Y26	Z26	X27	Y27	Z27	X28	Y28	Z28	X29	Y29	Z29	X30	Y30	Z30	X31	Y31	Z31	X32	Y32	Z32	X33	Y33	Z33	

124	42.518071428571	855.777808271896	1003.373493235217	500.976550935362	999.236399571026	1431.596334583959	303.627010928103	1129.618318816966	1362.893410905317	443.558041187896	1078.244143568940	1433.138636585757	630.915405202084	1007.048134109563	1491.230403444706	461.531692316869	1095.059740517659	936.262202514487	589.312989839022	1049.655935354472	958.539928098917	317.550371446544	1093.185480695797	725.286150385244	563.943366821450	993.811709447964	630.420345973726	633.026729127084	1050.072118556288	565.682659803503	550.878376436339	1034.205261567263	481.976800932753	558.258433645538	1120.592463478963	766.584630905038	339.102359740924	1057.715686070292	637.995671122860	269.687476229944	1163.642225526863	576.693432124764	321.523421091598	1184.795381873053	510.161913385361	319.178266452905	1164.397946687507	437.998121855004	310.601812013331	1087.162694014069	312.603176902203	264.824724529235	1170.739295185740	208.092689739730	313.879266094533	996.777277920393	397.304836256220	566.674476281740	916.872539272229	301.158900104448	631.290808698741	947.823653175758	202.589428868631	566.379189302117	804.428873228831	41.996104710315	536.618630013942	974.743389001286	95.820150321964	571.644706401451	887.627764471784	36.346594010553	611.660469256011	1095.564162546485	45.327483433938	599.311192386143	1076.774093522882	41.246315734533	358.903896516994	1145.330684899868	38.408959699427	274.234557865332	1226.149451142239	105.508997034001	292.497802192560	1353.661788226723	61.028043252205	256.743700419441	863.106108185361	1100.457642385839	225.747916064154	849.725010729327	838.371344824864	236.065355008275	1206.430720259692	1119.874870120055	753.039994284331	1437.301007813013	1172.852936823965	668.815716347755	
125	42.531714285714	856.914091323069	1002.403165095525	497.875093013147	999.270420988987	1430.618912985664	300.289990493597	1129.683371839922	1362.642514326911	440.506449098011	1077.676727990348	1432.842548364760	627.737485411403	1006.790303556513	1490.523019496020	458.128511051484	1096.159010180868	935.692923569469	587.008603015475	1051.543379328727	957.606983495629	315.213134986583	1094.012366358336	724.347106507018	562.256416361338	993.824594820701	629.857830259268	631.048312044949	1050.029980325210	564.558736890072	549.315086830368	1033.703269158698	480.492570527082	556.599806676797	1122.895451433951	765.284356388243	338.059725432170	1059.017769519343	636.730816125107	269.650352644491	1164.450657696418	575.365775588431	322.199600390774	1184.230136234852	507.669883676050	320.555627016328	1163.090770115003	435.064696430062	311.722363824988	1083.794470202726	310.861266549341	265.877817013938	1164.759438325029	204.946067716999	316.229498146243	995.131644691178	396.282729660358	565.251648464226	914.160908989218	301.248064015065	630.266368276251	943.801104440138	202.093082647676	565.792730282420	798.962505867114	42.135634418951	536.695281400855	969.379893757499	95.765017421258	571.626043052467	882.184980548796	36.295664264149	611.674077809338	1090.153086806725	44.946595624192	599.396319974268	1066.848873220729	40.134202481196	360.857936018126	1135.593240395047	37.057995177472	276.257979560942	1217.725175489607	102.229276967647	295.814985050721	1344.756713700161	55.641536082317	259.874376761912	864.391718417302	1098.918185854541	222.466402138773	852.559307273227	836.728705318436	231.849001813695	1205.511288236222	1119.306230957206	750.349859535059	1436.798185476878	1171.706998013627	666.687052933588	
126	42.545357142857	858.025641573677	1001.574550257094	494.697507217419	999.513866951963	1429.722533142226	296.797526135097	1129.866145124527	1362.469855072257	437.383735333761	1077.158004036519	1432.709969871824	624.433308177159	1006.636863730514	1489.941524030432	454.563767634533	1097.227114207394	935.213835142145	584.651880657128	1053.409832370401	956.860622445948	312.828246410844	1094.971401149423	723.510185384672	560.444890075377	994.097816926899	629.303750026381	628.920306180990	1050.344267062847	563.487519238170	547.603672339495	1033.595660025444	478.962131620427	554.837136410685	1125.105834810745	764.160855101463	336.985409250527	1060.389198544111	635.872112357025	269.213313432346	1165.232777309364	574.332618453428	322.596070073396	1183.611377638194	505.596057428028	321.543076688005	1161.918059379834	432.623687749032	312.347189908392	1080.975424439400	309.491825092737	266.146631737146	1159.442109635189	202.389044779447	317.887998796606	993.785843054004	395.246141909266	563.734879510204	911.654989272545	301.422851181505	629.147937074833	939.939796823314	201.650224022790	565.169677467432	793.509856548485	42.430049099722	536.779225227416	964.100425821979	95.740012093814	571.627292712426	876.778117839238	36.285560815812	611.678496672651	1084.790549620001	44.470205121720	599.494620142532	1058.062377205187	39.248573501896	362.079699205679	1127.011038120595	36.142308374638	277.557581484574	1210.106192316880	99.783849986008	298.329646291400	1336.822021881429	51.658830286988	262.267327309084	866.457771067309	1097.208742822355	218.750800396057	856.530401408002	834.902517452983	227.041402668003	1204.015312953373	1118.591698755426	747.617772896149	1436.108620227085	1169.380075769740	664.773887397106	
127	42.559000000000	859.089335402729	1000.930560187420	491.482049367886	999.956660512060	1428.950239607972	293.189259684853	1130.163108493998	1362.392606661674	434.213735579358	1076.719281062804	1432.776367713243	621.025118722689	1006.594467542265	1489.520443573010	450.872038547707	1098.231341682774	934.863645194337	582.235507969610	1055.177856239568	956.343986580951	310.375201046518	1096.004603362990	722.825570843948	558.476301343090	994.625499083548	628.796686596752	626.659505064711	1051.013215796430	562.518259531821	545.753474362248	1033.901892835550	477.421073957388	553.029075028649	1127.146854231450	763.300708948246	335.789078005767	1061.801780692807	635.439379418140	268.311658794781	1165.971223283825	573.618095775842	322.562957714362	1182.968630103251	503.993592952362	321.996111062407	1160.889764158518	430.711938375405	312.434227526131	1078.695467086010	308.518812200267	265.645008913009	1154.794313757031	200.452804529024	318.858777441884	992.758080245254	394.236736026099	562.171983754632	909.355641818567	301.733984914110	627.958848821423	936.259710222812	201.310971042762	564.537343082576	788.084544908495	42.966463990073	536.870942248794	958.936530842606	95.762988071847	571.662403026144	871.417129151925	36.361160080226	611.675992579125	1079.484484508869	43.894648559472	599.604344907492	1050.460137663149	38.616239546542	362.676749350652	1119.598768748807	35.608560166092	278.223075166384	1203.326034122462	98.143886581891	300.027590262881	1329.870203807948	49.012982476530	263.898069202935	869.320854537844	1095.385187335404	214.614281561956	861.645464898681	832.959944958965	221.684973733854	1201.933063186372	1117.765939161662	744.828813176239	1435.198182925639	1165.852272247130	663.066428464434	
128	42.572642857143	860.090690436424	1000.496009090802	488.243799785525	1000.572633138994	1428.334564390505	289.502823666450	1130.558929578648	1362.423939135834	431.016636529881	1076.373193107841	1433.059935305029	617.535765869035	1006.658245292842	1489.281884796333	447.086911550398	1099.144549231647	934.675380348814	579.748173876513	1056.797061395668	956.078393909099	307.828135578032	1097.066763920125	722.339277219394	556.330970551735	995.407266174175	628.373940931271	624.288868077336	1052.050205495096	561.698674307551	543.785531797010	1034.661962389981	475.902860048433	551.248023544436	1128.971399145081	762.753996400846	334.366823595468	1063.197947973647	635.395985288020	266.928692539113	1166.620819195756	573.186937212740	321.992612245775	1182.295222976595	502.841878812765	321.843075846446	1159.960936917106	429.294564673614	312.005237598976	1076.842007058286	307.913160434952	264.479530501857	1150.710912630110	199.091032692920	319.220956928863	992.084897005057	393.296044468111	560.617667411413	907.280250455888	302.236809149055	626.727213961831	932.790819263722	201.130753469331	563.927050801288	782.707933107054	43.850370236963	536.971289281534	953.922940557056	95.854189459058	571.743849113347	866.112830430906	36.582998370032	611.670285727089	1074.237676936080	43.225391681631	599.721917815481	1043.917249062402	38.225794646279	362.793065839323	1113.210755516568	35.373594682648	278.387091009488	1197.290199526684	97.197504251617	300.987665717544	1323.775951730969	47.505257855371	264.832623756904	872.975396078284	1093.503185735398	210.076796993594	867.915317773737	830.971862976179	215.823636393927	1199.256120205646	1116.864494306266	741.974823900960	1434.001568981478	1161.102170971819	661.549217697196	
129	42.586285714286	861.021073421993	1000.277328601728	484.972555838573	1001.326260453288	1427.895430125700	285.767446946149	1131.028358523784	1362.573800338263	427.807291887368	1076.108698320444	1433.559980301741	613.986487041290	1006.814056727903	1489.234949748030	443.235796142669	1099.945231035953	934.671618261127	577.175992128063	1058.249068329923	956.063125328203	305.163665853693	1098.139191607007	722.088170591429	554.005478808814	996.457324506755	628.065288899019	621.833194337089	1053.492784410890	561.070100702566	541.726928381244	1035.944605949095	474.434596464567	549.566136403437	1130.560307464684	762.520060804195	332.612304508597	1064.469564213368	635.651689197035	265.102898713666	1167.099412738717	572.953612787533	320.836258203784	1181.541243421638	502.063143750118	321.096179565911	1159.036353299230	428.286106801438	311.135183370281	1075.232044389703	307.604972357838	262.824784347871	1147.018447331941	198.204184582328	319.103330677151	991.827842686961	392.460938941241	559.123557699851	905.472143622926	302.988508635274	625.480680171233	929.577450511966	201.167760942881	563.368481671242	777.411220299193	45.203497041318	537.081865998662	949.096517876182	96.035492248396	571.879386234881	860.877502044410	37.027784405699	611.665712396509	1069.045415852194	42.478141114038	599.841635451997	1038.202964924677	38.038616040446	362.582410687458	1107.606352697375	35.344294521079	278.198708788810	1191.826571086683	96.784764594863	301.351963658263	1318.333225704726	46.863371020108	265.199406790311	877.397104570178	1091.615392310913	205.162189313573	875.354589309713	829.011198514031	209.500477129952	1195.976659768045	1115.920912120027	739.055567656899	1432.418603249743	1155.106331931702	660.201588776656	
